HIERARCHY
ROOT Hips
{
  OFFSET 5.70366 102.999 -1.77653
  CHANNELS 6 Xposition Yposition Zposition Zrotation Xrotation Yrotation
  JOINT RightUpLeg
  {
    OFFSET -8.9458 -8.66707 0.101652
    CHANNELS 3 Zrotation Xrotation Yrotation
    JOINT RightLeg
    {
      OFFSET 0 -44.4227 1.3727
      CHANNELS 3 Zrotation Xrotation Yrotation
      JOINT RightFoot
      {
        OFFSET 0.253549 -42.0924 -1.46059
        CHANNELS 3 Zrotation Xrotation Yrotation
        JOINT RightToes
        {
          OFFSET 0.04 -4.41509 8.4991
          CHANNELS 3 Zrotation Xrotation Yrotation
          End Site
          {
            OFFSET -0.08 -0.137448 9.77979
          }
        }
      }
    }
  }
  JOINT Spine
  {
    OFFSET 0 11.8905 0
    CHANNELS 3 Zrotation Xrotation Yrotation
    JOINT Spine1
    {
      OFFSET 0 25.6574 0.127663
      CHANNELS 3 Zrotation Xrotation Yrotation
      JOINT HEad
      {
        OFFSET 0 8.73416 0.011341
        CHANNELS 3 Zrotation Xrotation Yrotation
        End Site
        {
          OFFSET -0.29 12.7742 2.51395
        }
      }
      JOINT LeftShoulder1
      {
        OFFSET 8.99 -0.362252 -0.22
        CHANNELS 3 Zrotation Xrotation Yrotation
        JOINT LeftArm
        {
          OFFSET 10.2827 -0.00337999 0.322123
          CHANNELS 3 Zrotation Xrotation Yrotation
          JOINT LeftForeArm
          {
            OFFSET 26.2597 0.099144 -1.42434
            CHANNELS 3 Zrotation Xrotation Yrotation
            JOINT LeftHand
            {
              OFFSET 22.0902 0.085362 1.02216
              CHANNELS 3 Zrotation Xrotation Yrotation
              End Site
              {
                OFFSET 13.419 -0.6 1.50291
              }
            }
          }
        }
      }
      JOINT RightShoulder
      {
        OFFSET -8.99 -0.362252 -0.22
        CHANNELS 3 Zrotation Xrotation Yrotation
        JOINT RightArm
        {
          OFFSET -10.2827 -0.00338 0.322123
          CHANNELS 3 Zrotation Xrotation Yrotation
          JOINT RightForeArm
          {
            OFFSET -26.364 0.099144 -1.42434
            CHANNELS 3 Zrotation Xrotation Yrotation
            JOINT RightHand
            {
              OFFSET -22.0324 0.085362 1.02216
              CHANNELS 3 Zrotation Xrotation Yrotation
              End Site
              {
                OFFSET -13.3284 -0.6 1.50291
              }
            }
          }
        }
      }
    }
  }
  JOINT LeftUpLeg
  {
    OFFSET 8.9458 -8.66707 0.101652
    CHANNELS 3 Zrotation Xrotation Yrotation
    JOINT LeftLeg
    {
      OFFSET 0 -44.4227 1.3727
      CHANNELS 3 Zrotation Xrotation Yrotation
      JOINT LeftFoot
      {
        OFFSET -0.253549 -42.0924 -1.46059
        CHANNELS 3 Zrotation Xrotation Yrotation
        JOINT LeftToes
        {
          OFFSET -0.04 -4.41509 8.4991
          CHANNELS 3 Zrotation Xrotation Yrotation
          End Site
          {
            OFFSET 0.08 -0.047448 9.77979
          }
        }
      }
    }
  }
}
MOTION
Frames:	10
Frame Time:	0.0416667
-167.879 103.634 16.8889 1.26173 -3.80865 144.321 1.12606 -12.7408 6.18442 -0.729824 21.4923 -0.796292 -1.01886 -4.9409 -0.129499 0.0462048 0.000530887 0.662642 -3.09279 5.87534 -0.0710785 -1.88406 0.502587 0.164607 5.87451 8.03523 -25.3598 -27.4792 -2.43585 10.9128 -41.133 -27.9822 -9.51803 1.73532 44.0151 -16.4555 2.87896 9.67126 -7.48552 39.4601 0.759025 -2.5135 31.3898 -22.6484 2.16966 -2.63219 43.2538 17.0833 -3.30537 9.71092 3.34985 -2.50697 -8.25562 2.30111 2.01864 17.2979 29.1913 2.95872 -7.68201 0.0316128 -1.31148e-009 8.75241e-006 -1.4796e-008 
-168.466 103.759 16.9759 1.1106 -4.06271 138.639 -0.0982177 -11.2985 2.95556 -0.672912 21.319 -1.59438 -2.25893 -5.16611 -0.106043 0.0462048 0.000530887 0.662642 -3.02239 5.22532 0.179394 -1.50124 0.959448 0.347369 6.24006 6.50991 -23.8011 -27.7794 -2.4705 10.9525 -42.1083 -27.8979 -9.74785 1.77623 45.5914 -16.1955 2.49813 9.70934 -7.7543 39.5384 0.775764 -2.47941 31.7148 -21.9173 2.20301 -2.91584 42.9855 17.7947 -3.07627 9.73168 3.15239 -2.52056 -7.9648 2.78485 1.8568 16.2752 34.3107 2.72535 -7.06545 0.0129398 -1.31148e-009 8.75241e-006 -1.4796e-008 
-169.028 103.855 17.1368 0.823797 -4.29278 133.095 -1.09078 -10.3307 0.808783 -0.673053 21.0916 -2.71835 -2.64867 -5.55303 -0.108835 0.0462048 0.000530887 0.662642 -2.74399 5.31149 0.221203 -1.48757 0.463696 0.381305 6.8111 5.31772 -21.8821 -27.914 -2.55422 11.1682 -42.8809 -26.2622 -9.56951 0.912662 45.2325 -15.7769 3.35925 9.62213 -7.28089 39.8212 0.726299 -2.59405 32.1781 -20.8925 2.77943 -2.77732 43.2192 17.9681 -2.52846 9.77314 3.07692 -2.71341 -7.83072 2.91606 1.9748 15.2217 39.5476 2.72801 -6.34914 -0.00866164 -1.31148e-009 8.75241e-006 -1.4796e-008 
-169.531 104.001 17.4004 0.569178 -4.54631 128.163 -1.57278 -9.46763 -0.697705 -0.738231 20.1957 -3.9405 -2.97056 -5.49589 -0.100981 0.0462048 0.000530887 0.662642 -2.31936 5.57717 0.0882889 -1.53621 -0.149742 0.2638 7.48426 4.22058 -20.2016 -27.6876 -2.46657 10.9596 -43.9721 -24.6602 -9.3686 0.357702 44.5729 -15.677 3.66049 9.59966 -6.81181 40.5787 0.682473 -2.70626 32.5225 -20.1066 3.42781 -2.56189 43.7861 17.8899 -2.64833 9.76129 3.29361 -2.78082 -7.76213 2.92082 2.23465 14.1672 44.2194 2.5314 -5.51129 -0.0299968 -1.31148e-009 8.75241e-006 -1.4796e-008 
-169.759 104.097 17.7621 0.247764 -4.64288 123.374 -1.79196 -8.58212 -1.84144 -0.694754 18.7798 -4.35096 -2.80243 -4.78902 -0.08274 0.0462048 0.000530887 0.662642 -2.23608 4.74523 0.212737 -1.66625 0.640422 0.440923 8.32115 3.18007 -18.7212 -26.8511 -2.09915 10.0342 -46.1533 -24.4178 -9.73556 0.493037 45.2791 -15.6106 3.37523 9.62757 -6.91482 41.4768 0.645074 -2.80438 32.8881 -19.3819 4.01515 -2.48292 44.1909 17.9658 -2.89992 9.73324 3.85632 -2.66947 -7.79232 3.18099 2.35674 13.644 48.5952 2.20137 -4.75634 -0.0429908 -1.31148e-009 8.75241e-006 -1.4796e-008 
-169.828 104.086 18.2496 -0.222565 -4.39373 118.654 -2.04656 -7.83081 -2.46129 -0.598372 17.2583 -4.62299 -0.368547 -3.75403 -0.135484 0.0462048 0.000530887 0.662642 -2.57741 3.53777 0.50558 -1.69254 1.97129 0.770394 8.89973 2.3854 -17.0309 -26.3601 -1.86243 9.40809 -48.0246 -23.1939 -10.7028 0.394708 45.6798 -15.6665 3.4883 9.61626 -6.88564 41.5709 0.628406 -2.84099 33.7551 -18.029 4.67748 -2.33801 44.2858 18.1506 -3.03731 9.71554 4.23879 -2.66382 -7.98766 3.5129 2.34641 13.7765 52.4962 1.73122 -4.17913 -0.0431259 -1.31148e-009 8.75241e-006 -1.4796e-008 
-169.893 104.067 18.8738 -0.531325 -3.96082 115.082 -2.14429 -6.98465 -2.8532 -0.441142 15.312 -5.22678 2.21941 -3.18337 -0.229316 0.0462048 0.000530887 0.662642 -3.02997 3.21269 0.512419 -1.07725 2.55886 0.670987 8.65523 1.63629 -15.4895 -26.9825 -1.96642 9.61451 -48.2419 -19.5599 -11.8499 0.0549156 44.2281 -16.4186 3.5475 9.60838 -6.9526 40.798 0.690782 -2.69365 34.9284 -16.2709 5.12283 -2.36928 44.1154 18.6064 -2.98948 9.72477 3.93506 -2.5498 -8.20746 3.93648 2.09335 14.2691 54.9705 0.765224 -3.84723 -0.0178623 -1.31148e-009 8.75241e-006 -1.4796e-008 
-169.809 104.057 19.6123 -0.47673 -3.44509 113.01 -2.00409 -5.85053 -2.96933 -0.293662 13.1564 -4.98154 1.94636 -3.60078 -0.214463 0.0462048 0.000530887 0.662642 -3.23833 3.43793 0.265376 -0.427481 2.71758 0.294371 8.05239 1.07013 -14.5163 -27.5737 -2.07851 9.84491 -47.7466 -14.613 -12.6271 0.0660172 41.0739 -17.8262 3.40909 9.60872 -7.64099 40.2698 0.758034 -2.53793 35.7291 -15.299 5.26372 -2.51289 44.3749 18.9118 -2.6555 9.76013 3.3384 -2.07649 -8.24735 4.67387 1.50715 15.0659 55.9224 0.244306 -3.71173 -0.00165411 -1.31148e-009 8.75241e-006 -1.4796e-008 
-169.611 103.965 20.4733 -0.278902 -2.83826 111.678 -1.85321 -5.04338 -2.89087 -0.417333 12.0194 -3.50187 0.570011 -4.56575 -0.166526 0.0462048 0.000530887 0.662642 -2.9255 3.91476 0.0782268 -0.609165 2.47159 0.142052 7.70407 1.0382 -13.9083 -27.3963 -2.05854 9.8171 -47.2836 -9.08773 -12.9609 0.266542 36.7294 -19.494 3.52023 9.57966 -8.39103 40.4282 0.760932 -2.536 36.1363 -15.6593 5.32763 -2.42849 45.6896 18.5515 -2.45702 9.78007 2.94041 -1.24017 -8.40693 5.77433 0.565674 16.7217 54.6921 0.0912549 -4.12674 0.00625743 -1.31148e-009 8.75241e-006 -1.4796e-008 
-169.529 103.777 21.4219 -0.0523664 -2.54475 110.871 -1.54014 -5.12139 -2.91029 -0.428499 12.5011 -2.44327 0.0377929 -5.42054 -0.157027 0.0462048 0.000530887 0.662642 -1.94748 4.7042 0.0135584 -0.935531 1.84189 0.161463 7.33722 1.01094 -13.4851 -27.3486 -2.07738 9.8811 -46.5504 -3.57926 -13.4413 0.420526 32.1234 -21.195 3.59132 9.55889 -8.9394 40.5822 0.75818 -2.54606 36.4282 -16.3809 5.40121 -2.28299 46.9838 18.066 -2.4311 9.78725 2.60761 0.343652 -9.34443 9.2965 0.0877607 20.1894 47.7711 -1.31559 -5.32212 0.0416771 -1.31148e-009 8.75241e-006 -1.4796e-008 
